<?xml version="1.0" standalone="no"?><!DOCTYPE svg PUBLIC "-//W3C//DTD SVG 1.1//EN" "http://www.w3.org/Graphics/SVG/1.1/DTD/svg11.dtd"><svg t="1614070416407" class="icon" viewBox="0 0 1140 1024" version="1.1" xmlns="http://www.w3.org/2000/svg" p-id="2576" xmlns:xlink="http://www.w3.org/1999/xlink" width="17.8125" height="16"><defs><style type="text/css"></style></defs><path d="M1009.55637 1023.976A129.865 129.865 0 0 1 883.26237 864.24l2.841-11.85-78.406-44.154-225.235 130.92a27.353 27.353 0 0 1-27.028 0L329.38637 808.643l-76.864 45.534 3.571 10.064a129.784 129.784 0 1 1-37.66-64.932l8.927 8.279 76.134-45.534-0.812-260.705a27.028 27.028 0 0 1 13.555-23.538l227.264-131.083-0.81-90.419-10.553-1.948a129.865 129.865 0 1 1 75.078 0l-11.687 3.49 1.136 91.15 225.073 128.891a27.028 27.028 0 0 1 13.554 23.538v261.11l78.731 44.804 6.98-8.035a129.865 129.865 0 1 1 88.552 224.667zM366.39837 523.507l0.812 233.352 202.51 115.986 201.86-117.366-0.813-233.352-201.86-115.58z" p-id="2577" fill="#1296db"></path></svg>